<svg xmlns="http://www.w3.org/2000/svg" aria-hidden="true" overflow="hidden" style="position:absolute;width:0;height:0">
  <defs>
    <symbol id="antenna" viewBox="0 0 32 32">
      <path fill="var(--color-dark, #2e2f42)"
        d="m30.77 22.1-8.44-8.5.94-4.62a2 2 0 0 0 .75.15h.04a2.16 2.16 0 1 0-2.03-1.43v-.01l-4.97.6L8.97.17a.54.54 0 0 0-.75 0l-1.51 1.5a.54.54 0 0 0 0 .76l.81.82a14.9 14.9 0 0 0 2.52 17.66c.04.05.1.08.15.1-.04.18-.05.37-.05.55v6.19h-6.4a2.67 2.67 0 0 0-2.68 2.66v1.07c0 .3.24.53.54.53h24.53c.3 0 .53-.24.53-.54V30.4A2.67 2.67 0 0 0 24 27.73h-6.4V25a14.79 14.79 0 0 0 10.17-1.5l-.08.04.81.82a.53.53 0 0 0 .75.01l1.52-1.5c.2-.21.2-.55 0-.76zM23.28 6.23c.2-.19.46-.3.75-.3a1.07 1.07 0 0 1 0 2.13 1.07 1.07 0 0 1-.75-1.83zm-1.26 3.5-.6 2.95-1.17-1.18 1.77-1.76zm-.6-.9-1.92 1.92-1.49-1.5 3.4-.41zM24 28.8c.88 0 1.6.72 1.6 1.6v.54H2.14v-.54c0-.88.71-1.6 1.6-1.6H24zm-7.47-2.14v1.07H11.2v-1.07h5.34zM11.2 25.6v-4.05c0-1.3 1.2-2.35 2.67-2.35s2.67 1.05 2.67 2.35v4.05H11.2zm6.4-1.7v-2.35c0-1.89-1.67-3.42-3.73-3.42h-.06a3.8 3.8 0 0 0-3.21 1.77l-.01.02A13.82 13.82 0 0 1 8.35 3.95l-.04.08 18.6 18.71a13.64 13.64 0 0 1-9.4 1.15l.1.02zm11.3-.68L7.84 2.04l.75-.75 21.06 21.18-.76.75z" />
      <path fill="var(--color-primary-brand, #4d5ae5)"
        d="M13.88 20.27h-.01a1.6 1.6 0 0 0 0 3.2 1.6 1.6 0 0 0 0-3.2zm.37 1.98a.54.54 0 1 1-.38-.91.53.53 0 0 1 .37.9z" />
    </symbol>
    <symbol id="astronaut" viewBox="0 0 32 32">
      <path fill="var(--color-primary-brand, #4d5ae5)"
        d="M31.98 4.53a.54.54 0 0 0-.43-.37l-1.91-.28-.86-1.73c-.18-.36-.78-.36-.96 0l-.85 1.74-1.92.27a.53.53 0 0 0-.29.91l1.38 1.35-.33 1.9v.1a.54.54 0 0 0 .78.46l1.71-.9 1.71.9c.07.04.16.07.25.07a.54.54 0 0 0 .53-.63l-.33-1.9 1.38-1.35c.15-.14.2-.35.14-.55zM29.5 5.85a.54.54 0 0 0-.15.47l.19 1.11-1-.52a.53.53 0 0 0-.5 0l-1 .52.19-1.1a.54.54 0 0 0-.15-.48l-.81-.79 1.12-.16a.52.52 0 0 0 .4-.3l.5-1 .5 1c.08.16.23.27.4.3l1.12.16-.81.79zm-3.38 14.67h-1.06v1.07h1.07v-1.07zm0 2.14h-1.06v1.06h1.07v-1.06zm1.07-1.07h-1.06v1.06h1.06V21.6zm-2.13 0H24v1.06h1.06V21.6zm-2.67 4.8h-1.06v1.06h1.06V26.4zm0 2.13h-1.06v1.07h1.06v-1.07zm1.07-1.07H22.4v1.07h1.06v-1.06zm-2.13 0h-1.07v1.07h1.07v-1.06zM16 24.25h-1.06v1.07H16v-1.06zm0 2.14h-1.06v1.06H16V26.4zm1.07-1.07H16v1.07h1.06v-1.07zm-2.13 0h-1.07v1.07h1.07v-1.07zM5.87 6.12H4.8v1.07h1.07V6.12zm0 2.14H4.8v1.06h1.07V8.26zm1.06-1.07H5.86v1.06h1.07V7.2zm-2.13 0H3.74v1.06H4.8V7.2z" />
      <path fill="var(--color-dark, #2e2f42)"
        d="M24.71 14.16c-.28-.38-.7-.64-1.18-.7a1.77 1.77 0 0 0-1.34.35l-1.26.95-1.9 1.43-1.35-.54a6.95 6.95 0 0 0 4.12-6.32 6.95 6.95 0 0 0-13.93 0c0 1.38.42 2.67 1.12 3.75l-2.76-.02H6.2c-.05 0-.1.02-.15.04H6c-.01 0-.02 0-.02.02L2.75 14.7l-1.89.91a1.78 1.78 0 1 0 1.78 3.09l1.38-.73L6.3 16.8l1.35-.01-6.78 6.75a1.64 1.64 0 0 0 0 2.36 1.66 1.66 0 0 0 2.35 0l1.31-1.3 1.74-1.3.9.9-3.1 3.08a1.64 1.64 0 0 0 0 2.35 1.66 1.66 0 0 0 2.36 0l1.34-1.33 2.15-2.13 1-1v-.01l.02-.01 5.17-5.66 3.47.49h.07a.5.5 0 0 0 .2-.04l.04-.01.06-.03 3.21-2.14c.02 0 .02-.02.03-.02l.04-.03 1.28-1.2a1.78 1.78 0 0 0 .2-2.36zM2.14 17.77a.7.7 0 0 1-.56.05.72.72 0 0 1-.21-1.26l1.31-.63.32.92.13.4-.99.52zm3.5-1.83-1.55.8-.26-.74-.18-.54 2.02-1-.03 1.48zm15.1-6.62a5.8 5.8 0 0 1-.6 2.56l-4.18-1.9a1.86 1.86 0 0 0-.78-1.38h-.01l1.46-4.86a5.9 5.9 0 0 1 4.1 5.58zm-11.79 0a5.89 5.89 0 0 1 6.67-5.81h-.03l-1.44 4.75h-.05c-1.03 0-1.87.83-1.88 1.86a1.87 1.87 0 0 0 3.49.93l3.87 1.74A5.89 5.89 0 0 1 8.94 9.32zm5.95.8a.8.8 0 1 1-1.61 0c0-.44.37-.8.81-.8s.8.36.8.8zM2.47 25.15a.6.6 0 0 1-.85 0 .6.6 0 0 1 0-.84l.96-.96.85.85-.96.95zm3.21 3.74a.6.6 0 0 1-1.03-.43.6.6 0 0 1 .18-.42l.96-.96.85.85-.95.95zm3.48-3.48L7.4 27.18l-.85-.85 1.76-1.75a.42.42 0 0 0 .09-.14l.03-.04.03-.12v-.07c0-.04 0-.07-.02-.1l-.01-.1a.52.52 0 0 0-.1-.15s0-.02-.02-.03l-1.6-1.6-.07-.04a.53.53 0 0 0-.08-.06.47.47 0 0 0-.1-.03.55.55 0 0 0-.1-.02h-.1l-.1.02a.5.5 0 0 0-.1.05c-.01.01-.04.01-.05.03L4.23 23.5l-.9-.9 2.4-2.38 4.36 4.28-.93.92zm6.82-7.01h-.08c-.1 0-.2.03-.27.08l-.08.06-.04.03-4.7 5.14-4.33-4.26 2.84-2.81c.1-.1.15-.23.15-.38a.53.53 0 0 0-.53-.53l-2.22.01.02-1.6 3.1.02a6.93 6.93 0 0 0 6.31 1.97l-.04.01.13.08 2.4.96.16.76.18.88-3-.42zm4.04.18-.32-1.56 1.45-1.08.38.5.57.75-2.08 1.38zm3.75-2.83-.83.78-.94-1.24.83-.63a.72.72 0 0 1 1.18.56c0 .2-.1.4-.23.53z" />
      <path fill="var(--color-dark, #2e2f42)"
        d="m13.6 18.55-2.14-2.14a.53.53 0 0 0-.75 0l-2.15 2.14a.54.54 0 0 0 0 .75l2.15 2.14a.53.53 0 0 0 .75 0l2.14-2.14a.54.54 0 0 0 0-.75zm-2.51 1.75-1.4-1.38 1.4-1.38 1.38 1.38-1.39 1.38zm6.07-15.23L16.9 6.1c.08.03 1.74.46 1.74 2.16h1.07c0-2.02-1.67-2.97-2.55-3.19zm2.55 4.25h-1.06v1.07h1.07V9.32z" />
    </symbol>
    <symbol id="clock" viewBox="0 0 32 32">
      <path fill="var(--color-dark, #2e2f42)"
        d="M31.3 15.3a15.3 15.3 0 1 0-20.07 14.56l.1.03a.67.67 0 0 0 .54-.07.66.66 0 0 0 .28-.36l3.87-12.25a1.91 1.91 0 1 0-.86-3.62h.02l-5.1-5.12a.64.64 0 0 0-.9.9l5.1 5.11a1.87 1.87 0 0 0 .53 2.3v.01l-3.68 11.68a14.04 14.04 0 1 1 10.66-.39l-.1.04-.4-1.88a.64.64 0 0 0-1.05-.34l-3.83 3.42a.63.63 0 0 0 .23 1.09l4.9 1.56a.64.64 0 0 0 .82-.74l-.39-1.84a15.28 15.28 0 0 0 9.33-14.05v-.04zm-15.31-.64h.06a.64.64 0 1 1-.06 1.28.64.64 0 0 1 0-1.27zm2.1 14.87 2.19-1.95.6 2.84-2.78-.89z" />
      <path fill="var(--color-primary-brand, #4d5ae5)"
        d="M15.35 3.19v1.27a.64.64 0 0 0 1.28 0V3.19a.64.64 0 0 0-1.27 0zM3.88 14.66a.64.64 0 0 0 0 1.28h1.27a.64.64 0 1 0 0-1.28H3.87zm24.23 1.28a.64.64 0 1 0 0-1.28h-1.27a.64.64 0 0 0 0 1.28h1.27z" />
    </symbol>
    <symbol id="diagram" viewBox="0 0 32 32">
      <path fill="var(--color-primary-brand, #4d5ae5)"
        d="M14.93 14.96h1.06v4.8h-1.06v-4.8zm4.26 2.14h1.06v2.66H19.2V17.1zm-8.53 1.6h1.06v1.06h-1.06V18.7zm-3.2-.54h1.07v1.6H7.47v-1.6z" />
      <path fill="var(--color-dark, #2e2f42)"
        d="M1.6 28.29h25.59c.88 0 1.6-.72 1.6-1.6v-2.13c0-.88-.72-1.6-1.6-1.6h-.53V9.66l3.02-2.86a1.61 1.61 0 1 0-.75-.76L26.66 8.2V6.97c0-.88-.72-1.6-1.6-1.6H3.73c-.88 0-1.6.72-1.6 1.6v15.99H1.6c-.88 0-1.6.72-1.6 1.6v2.13c0 .88.72 1.6 1.6 1.6zM30.39 4.84a.54.54 0 1 1 0 1.06.54.54 0 0 1 0-1.07zM3.2 6.97c0-.3.23-.54.53-.54h21.32c.3 0 .53.24.53.54V9.2l-1.06 1.01V8.04c0-.3-.24-.54-.54-.54H4.8a.53.53 0 0 0-.53.54v13.32c0 .3.24.54.53.54h19.19c.3 0 .54-.24.54-.54v-9.67l1.06-1v12.28H3.2v-16zM8 13.9h-.01a1.6 1.6 0 1 0 1.11 2.75l1.86.93c.21.1.47.06.63-.12l3.94-4.43 3.88 2.9c.2.15.5.14.68-.04l3.37-3.2v8.14H5.33V8.57h18.13v2.66l-3.77 3.57-3.9-2.92a.53.53 0 0 0-.73.06l-4 4.5-1.48-.75.02-.2c0-.87-.72-1.6-1.6-1.6zm.53 1.6v.05a.54.54 0 1 1-1.06-.05.54.54 0 0 1 1.06 0zm3.2 8.52h5.33v.54c0 .3-.24.54-.53.54h-4.27a.54.54 0 0 1-.53-.54v-.54zm-10.67.54c0-.3.24-.54.54-.54h9.06v.54c0 .88.71 1.6 1.6 1.6h4.26c.88 0 1.6-.72 1.6-1.6v-.54h9.06c.3 0 .54.24.54.54v2.13c0 .3-.24.53-.54.53H1.6a.54.54 0 0 1-.53-.53v-2.13z" />
    </symbol>
    <symbol id="facebook" viewBox="0 0 32 32">
      <path
        d="M21.32 5.32h2.94V.2C23.74.16 22 0 20 0c-4.2 0-7.1 2.64-7.1 7.52V12H8.24v5.68h4.66V32h5.7V17.68h4.46l.7-5.68H18.6V8.08c0-1.64.44-2.76 2.72-2.76z" />
    </symbol>
    <symbol id="instagram" viewBox="0 0 32 32">
      <path
        d="M31.96 9.4c-.03-1.4-.3-2.73-.77-3.96l.03.08A8.09 8.09 0 0 0 26.54.84 11.36 11.36 0 0 0 22.67.1h-.01a104.85 104.85 0 0 0-6.69-.1h.09c-4.34 0-4.88 0-6.6.1-1.4.01-2.72.28-3.93.77L5.6.84A8.09 8.09 0 0 0 .92 5.52c-.4 1-.66 2.2-.74 3.88a104.77 104.77 0 0 0-.12 6.67V16c0 4.34 0 4.9.08 6.6s.36 2.86.76 3.88a7.96 7.96 0 0 0 4.63 4.66l.05.02c1 .4 2.18.68 3.88.74 1.7.08 2.24.1 6.6.1 4.34 0 4.88 0 6.6-.1 1.4-.03 2.73-.3 3.96-.77l-.08.03a8.25 8.25 0 0 0 4.66-4.63l.02-.05c.4-1.02.66-2.2.74-3.88.08-1.7.08-2.26.08-6.6s0-4.88-.08-6.6zm-2.88 13.08a8.52 8.52 0 0 1-.54 2.96 5.3 5.3 0 0 1-3.04 3.04c-.56.22-1.4.48-2.98.56-1.68.06-2.2.08-6.46.08s-4.78 0-6.46-.08a8.77 8.77 0 0 1-3.02-.58l.06.02a4.94 4.94 0 0 1-1.84-1.2 4.99 4.99 0 0 1-1.19-1.8l-.01-.04a8.65 8.65 0 0 1-.54-2.96 108.54 108.54 0 0 1-.1-6.54v.08c0-4.28 0-4.8.1-6.46.06-1.58.32-2.4.54-2.98a4.9 4.9 0 0 1 1.2-1.84 5.15 5.15 0 0 1 1.84-1.2c.56-.2 1.4-.48 2.96-.54 1.7-.08 2.2-.1 6.48-.1 4.26 0 4.78.02 6.46.1a8.4 8.4 0 0 1 2.96.56c.7.24 1.34.66 1.84 1.2.54.5.94 1.12 1.2 1.82.2.56.48 1.4.54 2.98.08 1.68.1 2.2.1 6.46s0 4.76-.1 6.46z" />
      <path
        d="m16.06 7.8-.4-.01a8.22 8.22 0 1 0 .42 16.43h-.02a8.22 8.22 0 1 0 0-16.44zm0 13.54a5.34 5.34 0 0 1 0-10.68 5.34 5.34 0 0 1 0 10.68zM26.52 7.46a1.92 1.92 0 0 1-3.84 0 1.92 1.92 0 0 1 3.84 0z" />
    </symbol>
    <symbol id="linkedin" viewBox="0 0 32 32">
      <path
        d="M32 32V20.26c0-5.74-1.24-10.16-7.94-10.16-3.24 0-5.4 1.76-6.28 3.44h-.1v-2.9h-6.36V32h6.62V21.4c0-2.8.54-5.48 4-5.48 3.4 0 3.44 3.18 3.44 5.66V32h6.6zM.52 10.64h6.64V32H.52V10.64zM3.84 0C1.72 0 0 1.72 0 3.84s1.72 3.88 3.84 3.88 3.84-1.76 3.84-3.88S5.96 0 3.84 0z" />
    </symbol>
    <symbol id="twitter" viewBox="0 0 32 32">
      <path
        d="M32 6.08c-1.2.52-2.46.86-3.78 1.04 1.36-.8 2.4-2.1 2.88-3.64-1.26.76-2.66 1.3-4.16 1.6a6.58 6.58 0 0 0-11.2 6.03v-.05A18.55 18.55 0 0 1 2.27 4.23l-.03-.03a6.6 6.6 0 0 0 2 8.74l.02.02a6.45 6.45 0 0 1-3-.82l.04.02v.06a6.6 6.6 0 0 0 5.22 6.45l.04.01a6.38 6.38 0 0 1-3 .1h.04a6.64 6.64 0 0 0 6.11 4.56h.01a13.12 13.12 0 0 1-9.78 2.71H0A18.28 18.28 0 0 0 10 29h.06c12.08 0 18.68-10 18.68-18.66l-.02-.86c1.3-.94 2.38-2.06 3.25-3.35l.03-.05z" />
    </symbol>
    <symbol id="group_foster_peters" viewBox="0 0 66 32">
      <path
        d="M10.2 9.77c-1.86 0-3.36 1.36-3.36 3.05 0 1.67 1.5 3.03 3.37 3.03 1.86 0 3.37-1.36 3.37-3.04s-1.51-3.05-3.37-3.05zm24.9-.97a8.37 8.37 0 0 0-2.87-6.22A10.3 10.3 0 0 0 25.39 0h-.06c-2.58 0-5.06.94-6.89 2.57a8.39 8.39 0 0 0-2.86 6.22v12.87S35.09 19.7 35.09 8.8zM0 25.87a5.84 5.84 0 0 0 1.98 4.33H2A7.17 7.17 0 0 0 6.75 32h.08c1.83 0 3.5-.68 4.76-1.8a5.85 5.85 0 0 0 1.99-4.31v-8.96S0 18.3 0 25.87zm6.79 1.61c-.35 0-.7-.1-1-.27a1.66 1.66 0 0 1-.64-.71v-.01a1.43 1.43 0 0 1-.1-.94v.01c.07-.33.24-.6.48-.82a1.92 1.92 0 0 1 1.95-.34h-.01c.33.12.6.33.8.58a1.48 1.48 0 0 1-.22 2.03c-.16.16-.36.28-.57.35h-.01c-.21.08-.45.13-.68.13v-.01zM19.2 24.6v3.33h-.68v-3.34h.69zm1.33 1.42v.53h-1.5v-.53h1.5zm.16-1.43v.55h-1.67v-.55h1.67zm3.14 1.6v.15c0 .25-.04.48-.11.68a1.35 1.35 0 0 1-.74.84c-.18.08-.36.11-.57.11h-.06c-.38 0-.73-.17-.97-.43a1.49 1.49 0 0 1-.29-.52c-.06-.2-.1-.43-.1-.67v-.17a2 2 0 0 1 .1-.68c.07-.2.16-.37.3-.51.12-.15.27-.25.44-.33s.37-.1.58-.1h.02c.4 0 .75.16 1 .43.25.3.4.7.4 1.14v.06zm-.7.15v-.15c0-.18-.01-.34-.04-.47a1 1 0 0 0-.15-.35.6.6 0 0 0-.5-.27h-.06c-.22 0-.4.1-.52.27-.05.1-.1.2-.13.34s-.05.3-.05.47v.16c0 .18.02.33.05.47.03.13.08.25.14.34a.7.7 0 0 0 .54.29.7.7 0 0 0 .3-.08c.1-.05.18-.12.23-.21.07-.09.11-.2.14-.34.04-.14.05-.3.05-.47zm2.92.71v-.01c0-.05 0-.1-.02-.15a.3.3 0 0 0-.1-.13l-.2-.12a2.3 2.3 0 0 0-.33-.12l-.43-.16a1.78 1.78 0 0 1-.37-.22.89.89 0 0 1-.23-.28.77.77 0 0 1-.09-.37v-.02c0-.13.04-.26.1-.37a.92.92 0 0 1 .25-.3c.11-.07.24-.14.4-.18a1.72 1.72 0 0 1 1.14.07c.17.08.31.2.41.36s.16.32.16.53h-.69v-.01a.51.51 0 0 0-.06-.25.43.43 0 0 0-.18-.17.65.65 0 0 0-.3-.07h-.03a.7.7 0 0 0-.28.05.4.4 0 0 0-.17.15.35.35 0 0 0-.06.2c0 .06.01.1.04.16l.13.12c.14.08.3.16.47.22h.02c.32.09.6.23.83.42.17.15.28.38.28.63v.02c0 .14-.03.27-.08.4a.97.97 0 0 1-.64.46 1.83 1.83 0 0 1-1.42-.2.98.98 0 0 1-.3-.34 1 1 0 0 1-.12-.49h.69c0 .1.01.2.04.27a.4.4 0 0 0 .14.17c.06.04.13.07.21.1l.27.03a.8.8 0 0 0 .3-.06.36.36 0 0 0 .22-.33v-.01zm2.64-2.45v3.33h-.68v-3.34h.68zm1.03 0v.53h-2.71v-.54h2.71zm2.62 2.8v.53h-1.77v-.54h1.77zm-1.54-2.8v3.33h-.69v-3.34h.69zm1.3 1.35v.52h-1.53v-.52h1.54zm.24-1.35v.53h-1.77v-.54h1.77zm.4 0H34c.25 0 .47.03.65.11a.9.9 0 0 1 .58.84v.05c0 .18-.04.34-.1.46a.76.76 0 0 1-.25.31c-.1.09-.23.16-.39.21l-.21.11H33.2v-.53h.8a.6.6 0 0 0 .3-.07c.07-.04.14-.1.18-.17a.55.55 0 0 0 .06-.25v-.03a.6.6 0 0 0-.07-.27.4.4 0 0 0-.17-.17.65.65 0 0 0-.28-.07h-.58v2.8h-.7v-3.34zm1.87 3.33-.77-1.49h.73l.77 1.45v.04h-.73zm3.6-1.2h-.86v-.53h.89c.1 0 .2-.02.29-.07.07-.03.14-.1.18-.17s.06-.17.06-.27-.03-.2-.07-.28a.47.47 0 0 0-.17-.2.59.59 0 0 0-.3-.08h-.64v2.8h-.68v-3.34h1.3c.26 0 .48.06.67.15.34.17.57.51.57.91v.04c0 .21-.04.4-.14.55a1 1 0 0 1-.43.37c-.2.08-.41.13-.68.13zm3.95.66v.54H40.4v-.54h1.77zm-1.54-2.8v3.34h-.69v-3.34h.69zm1.3 1.36v.52H40.4v-.52h1.54zm.24-1.35v.53H40.4v-.54h1.77zm1.94 0v3.33h-.69v-3.34h.69zm1.02 0v.53H42.4v-.54h2.72zm2.62 2.8v.53h-1.77v-.54h1.77zm-1.54-2.81v3.33h-.68v-3.34h.68zm1.32 1.35v.53h-1.55v-.53h1.55zm.24-1.35v.53h-1.79v-.54h1.77zm.39 0h1.25c.25 0 .47.03.65.11.35.15.58.48.58.87v.02c0 .18-.04.34-.1.46a.83.83 0 0 1-.25.31 1.4 1.4 0 0 1-.38.22l-.22.1H48.6v-.53h.81c.1 0 .2-.02.3-.07.07-.04.13-.1.17-.17a.55.55 0 0 0 .06-.25v-.02a.6.6 0 0 0-.06-.28.4.4 0 0 0-.17-.17.65.65 0 0 0-.29-.07h-.57v2.8h-.7v-3.33zm1.87 3.33-.76-1.49h.72l.77 1.46v.03H50zm2.87-.88v-.01c0-.05-.01-.1-.03-.14a.3.3 0 0 0-.1-.13l-.2-.13a2.3 2.3 0 0 0-.33-.12l-.43-.16a1.8 1.8 0 0 1-.35-.22.78.78 0 0 1-.33-.64v-.04c0-.13.03-.25.09-.36a.92.92 0 0 1 .25-.3c.11-.07.24-.14.4-.18a1.72 1.72 0 0 1 1.15.07h-.02c.18.08.32.2.43.36s.15.33.15.53h-.69v-.03a.5.5 0 0 0-.05-.23.43.43 0 0 0-.19-.17.65.65 0 0 0-.3-.07h-.03a.7.7 0 0 0-.28.06h.01a.4.4 0 0 0-.18.14.35.35 0 0 0-.06.2c0 .06.01.1.04.16l.13.13c.14.08.3.15.47.2l.02.01c.32.09.6.23.83.42.17.16.28.38.28.63v.02c0 .14-.03.28-.08.4-.06.1-.14.2-.25.28s-.23.14-.39.18a1.83 1.83 0 0 1-1.42-.2.98.98 0 0 1-.3-.34 1 1 0 0 1-.12-.49h.69c0 .11.01.2.05.27.03.07.08.13.13.17a.5.5 0 0 0 .22.1c.07.02.17.03.26.03h.01c.1 0 .2-.02.3-.06h-.01a.36.36 0 0 0 .23-.33z" />
    </symbol>
    <symbol id="logo_company" viewBox="0 0 34 32">
      <path
        d="M5.32 31.4h.03l.04.02.17.16c-.14.13-.3.23-.49.31-.22.08-.45.12-.7.1a1.7 1.7 0 0 1-.63-.1 1.31 1.31 0 0 1-.8-.73 1.45 1.45 0 0 1 0-1.17V30a1.42 1.42 0 0 1 .84-.74h.01a2.02 2.02 0 0 1 1.3 0h-.01c.16.05.33.15.46.25l-.15.17-.03.03a.1.1 0 0 1-.05.02H5.3a.13.13 0 0 1-.06-.03l-.08-.03-.1-.07a1.23 1.23 0 0 0-.55-.12h-.06c-.15 0-.32.03-.47.08a1 1 0 0 0-.62.55c-.06.16-.1.32-.08.48v.05c0 .44.28.82.68.96.14.05.29.08.44.08l.27-.02c.21-.02.4-.1.56-.23a.13.13 0 0 1 .08-.04zm4.97-.82c0 .2-.03.39-.11.57-.08.17-.18.32-.33.44-.14.14-.31.24-.5.3a2.2 2.2 0 0 1-1.32 0 1.4 1.4 0 0 1-.5-.3 1.3 1.3 0 0 1-.33-.43v-.01a1.46 1.46 0 0 1 0-1.15 1.31 1.31 0 0 1 .83-.73 2.05 2.05 0 0 1 1.33 0h-.02c.2.06.37.16.51.29.27.24.45.6.45.99v.03zm-.45 0c0-.16-.02-.31-.08-.46a.95.95 0 0 0-.59-.56c-.32-.1-.65-.1-.96 0a1 1 0 0 0-.37.22c-.1.1-.17.21-.23.34-.1.3-.1.62 0 .92.1.27.32.47.6.56.31.1.65.1.95 0a1 1 0 0 0 .6-.55v-.01c.06-.15.08-.3.08-.46zm3.85.48.04.1.1-.2 1.1-1.72.07-.04.07-.01h.34v2.78h-.39v-2.23l-1.1 1.74a.15.15 0 0 1-.06.06.2.2 0 0 1-.1.02h-.06a.2.2 0 0 1-.1-.02.15.15 0 0 1-.06-.06l-1.14-1.75v2.23h-.37v-2.77h.42a.1.1 0 0 1 .06.06l1.12 1.72c.02.02.05.05.06.1zm4.14-.14v1.05h-.43v-2.78h.96c.18 0 .36.02.54.06a1 1 0 0 1 .38.17.8.8 0 0 1 .29.62v.02c0 .25-.12.48-.31.62a1.57 1.57 0 0 1-.9.25h-.53zm0-.3h.52c.12 0 .23-.01.33-.03.1-.03.18-.07.25-.13.12-.1.2-.24.2-.4V30a.47.47 0 0 0-.05-.2v.01a.54.54 0 0 0-.15-.2.92.92 0 0 0-.58-.14h-.52v1.15zm5.79 1.35h-.34l-.1-.02a.18.18 0 0 1-.05-.07l-.3-.68h-1.47l-.3.68a.16.16 0 0 1-.05.07.16.16 0 0 1-.09.02h-.35l1.28-2.78h.46l1.3 2.78zm-2.13-1.03h1.21l-.51-1.13a1.36 1.36 0 0 1-.1-.26l-.05.14-.05.12-.5 1.13zm4-1.74.06.05 1.88 2.1v-2.16h.4v2.78h-.22c-.04 0-.07 0-.1-.02a.23.23 0 0 1-.07-.05l-1.87-2.1v2.17h-.4v-2.78h.31zm5.5 1.66v1.1h-.43v-1.1l-1.19-1.67h.39c.03 0 .06 0 .09.02l.06.07.74 1.07c.05.07.09.16.13.24v.01l.06-.11.07-.14.74-1.09a.28.28 0 0 1 .05-.05.15.15 0 0 1 .1-.03h.39l-1.2 1.68zm-17.52-6.34.57.05a15.83 15.83 0 0 0 7.05-5.2l.02-.03a12.3 12.3 0 0 0 2.52-7.48v-.23.02l-3.2-2.74a13.68 13.68 0 0 1-.92 8.73l.03-.08a16.48 16.48 0 0 1-6 6.92l-.07.04z" />
      <path
        d="m12.33 24.39.08.02a16.01 16.01 0 0 0 6.38-7.07l.04-.1a13.22 13.22 0 0 0 .58-9l-4.56-3.9A16.53 16.53 0 0 1 17 14.66a17.5 17.5 0 0 1-4.66 9.73v-.01zm15.48-9.53c-.9 3.18-2.8 5.83-5.33 7.66l-.04.03c-.74.55-1.57 1.07-2.46 1.51l-.1.05a15.85 15.85 0 0 0 5.97-2.88l-.03.02a13.03 13.03 0 0 0 3.8-4.73l.04-.07-1.85-1.59z" />
      <path
        d="m27.08 14.42-2.63-2.25a12.83 12.83 0 0 1-2.5 7.3l.02-.04a16.2 16.2 0 0 1-6.34 5.15l-.1.04c.6 0 1.19-.03 1.77-.09a16.4 16.4 0 0 0 6.38-4 13.1 13.1 0 0 0 3.38-6.02l.02-.09zM12.71 2.7 9.57 0a14.9 14.9 0 0 0-6.92 4.66l-.02.02A11.47 11.47 0 0 0 0 11.88c.04 3.05 1.25 5.8 3.19 7.86a15.4 15.4 0 0 0 8.14 4.51 16.8 16.8 0 0 0 4.82-10.53v-.06a16.25 16.25 0 0 0-3.47-11l.03.03zm21.63 11.32c0-3.38-1.58-6.61-4.37-9a16.24 16.24 0 0 0-10.54-3.74c-1.82 0-3.63.3-5.33.85l19.24 16.45c.63-1.34 1-2.9 1-4.56z" />
    </symbol>
    <symbol id="logo_tagline_company" viewBox="0 0 25 32">
      <path
        d="M10.53 1.8h-.81l-.78.01h.04A17.4 17.4 0 0 0 2.5 3.46l-.27.13V17.2l.63-.2c2-.73 4.3-1.15 6.7-1.18v1.79l-.65.02h-.05c-3.1.17-5.97 1.03-8.5 2.42l.1-.05V2.52A17.87 17.87 0 0 1 5.14.62l.13-.04C6.62.22 8.17.01 9.77 0h.27a13 13 0 0 1 3.25.42L13.2.4v1.77c-.63-.16-1.37-.28-2.13-.33h-.09c-.15-.02-.3-.04-.45-.04zm3.1 1.8a18.92 18.92 0 0 0 6.09-.59l-.14.03a19.55 19.55 0 0 0 4.67-1.83l-.1.05v17.16a17.95 17.95 0 0 1-4.67 1.93l-.13.03a18.5 18.5 0 0 1-4.5.57h-.11c-1.18 0-2.33-.14-3.42-.42l.1.02V3.27c.63.16 1.39.28 2.16.33h.05zm8.74.14-.62.21a20.67 20.67 0 0 1-8.1 1.14h.05l-.5-.02v14l.43.04a16.14 16.14 0 0 0 5.4-.5l-.1.03c1.21-.31 2.27-.7 3.27-1.2l-.1.05.27-.12V3.74zM1.69 25.98a.92.92 0 0 0-.66-.28H.99c-.13 0-.27.02-.4.07a.93.93 0 0 0-.58.9v2.35c0 .16.02.32.09.47a1 1 0 0 0 .23.31c.1.08.2.14.32.17s.24.05.35.05a.98.98 0 0 0 .97-.99v-.25h-.62v.2a.4.4 0 0 1-.03.2.38.38 0 0 1-.08.14.42.42 0 0 1-.26.09H.94a.3.3 0 0 1-.24-.12.55.55 0 0 1-.1-.3v-2.2c0-.12.03-.24.09-.34a.3.3 0 0 1 .3-.14c.11 0 .2.05.27.13.06.08.1.19.1.3v.21h.6v-.24c0-.29-.1-.54-.27-.74zm3.62-.03a1.08 1.08 0 0 0-1.06-.19.97.97 0 0 0-.32.19 1.02 1.02 0 0 0-.32.78v2.24c0 .16.02.31.08.46a.8.8 0 0 0 .24.3c.1.1.2.17.32.21a1.06 1.06 0 0 0 .74 0h-.01a.96.96 0 0 0 .65-.9v-2.35a1 1 0 0 0-.32-.74zm-.28 3.02a.39.39 0 0 1-.13.32.45.45 0 0 1-.57 0 .4.4 0 0 1-.12-.29v-2.27a.39.39 0 0 1 .12-.32.45.45 0 0 1 .58 0 .4.4 0 0 1 .12.29v2.27zm5.04 1v-4.25h-.59l-.77 2.25-.78-2.25h-.58v4.24h.6v-2.58h.01l.6 1.83h.3l.6-1.83v2.58h.61zm3.44-3.94a.78.78 0 0 0-.34-.23 1.31 1.31 0 0 0-.42-.07h-.92v4.24h.6V28.3h.31c.2 0 .38-.03.55-.11.25-.16.42-.4.47-.7a2.92 2.92 0 0 0-.03-1.1v.02a.9.9 0 0 0-.22-.4zm-.3 1.3a.52.52 0 0 1-.07.21.32.32 0 0 1-.15.15.6.6 0 0 1-.27.06h-.29V26.3h.33c.1 0 .18.02.26.06.06.03.1.08.14.15a.6.6 0 0 1 .05.23v.58zm3.16-1.6h-.5l-.92 4.24h.6l.18-.91h.82l.19.9h.6l-.96-4.23zm-.56 2.75.3-1.54h.01l.3 1.54h-.6zm4.47-.2h-.02l-.9-2.55h-.58v4.24h.6v-2.55h.01l.92 2.55h.56v-4.25h-.6v2.56zm3.69-2.55-.5 1.68-.5-1.68h-.62l.83 2.45v1.78h.6v-1.78l.83-2.45h-.64zM0 31.16h.29v.82h.2v-.82h.3V31h-.8v.16zM2.45 31l-.38.98h.2l.09-.22h.39l.08.22h.21L2.67 31h-.21zm-.03.6.13-.38.13.37h-.26zm2.44.02h.24v.12a.38.38 0 0 1-.24.09h-.02a.25.25 0 0 1-.19-.1.4.4 0 0 1-.07-.23v-.02c0-.22.1-.33.28-.33h.02c.1 0 .18.07.2.15l.2-.03c-.04-.2-.18-.3-.42-.3h-.02a.5.5 0 0 0-.32.13.48.48 0 0 0-.14.39c0 .13.03.26.12.36.09.1.21.15.35.15h.03a.6.6 0 0 0 .41-.16v-.39h-.43v.17zM7.33 31h-.2v.98h.7v-.16h-.5V31zm2.1 0h-.2v.98h.2V31zm2.04.66-.4-.66h-.2v.98h.19v-.64l.4.64h.19V31h-.19v.65zm1.85-.1h.49v-.18h-.5v-.22h.53V31h-.73v.98h.76v-.16h-.56v-.27zm4.47-.17h-.39v-.4h-.2v1h.2v-.44h.4v.43h.19V31h-.2v.38zm1.86.16h.5v-.17h-.5v-.22h.53V31h-.73v.98h.75v-.16h-.55v-.27zm2.52 0c.17-.03.25-.12.25-.28a.23.23 0 0 0-.09-.21.55.55 0 0 0-.25-.06h-.46v.98h.2v-.41h.04c.04 0 .08 0 .12.03.03.01.06.04.08.07l.21.3h.23l-.12-.18a.64.64 0 0 0-.21-.24zm-.2-.14h-.15v-.24h.21c.05 0 .1 0 .15.02.03.02.05.06.05.1 0 .04-.02.08-.06.1a.56.56 0 0 1-.17.03h-.03zm2.1.14h.49v-.17h-.5v-.22h.54V31h-.73v.98h.75v-.16h-.55v-.27z" />
    </symbol>
    <symbol id="logo_ya-co" viewBox="0 0 28 32">
      <path
        d="m4.08 0 4.77 4.55H0V26.6h23.15v-8.44l4.77 4.54V0H4.07zm18.86 17.63L9.4 4.73h13.54v12.9zm-4.2 5.74H3.66V8.54h1.07v13.82h14v1zm-12.07 7.3-.56-1.15h-.46l.82 1.53v.89h.41v-.89l.82-1.53h-.46l-.56 1.16zm2.07-1.15h.1l.92 2.43H9.3l-.2-.57h-.93l-.2.57h-.43l.91-2.43h.28zm-.44 1.53H9l-.35-1.02-.35 1.02zm2.93-.4a1.2 1.2 0 0 1-.2-.3v-.01a.64.64 0 0 1 .03-.57.52.52 0 0 1 .21-.2c.1-.06.2-.08.34-.08.12 0 .22.02.31.07a.52.52 0 0 1 .24.68.59.59 0 0 1-.12.17c-.04.05-.1.1-.17.15l-.16.12.48.56a.9.9 0 0 0 .1-.44h.35a1.24 1.24 0 0 1-.22.73l.36.42h-.46l-.14-.17-.24.14h-.01a1.09 1.09 0 0 1-.8-.03.68.68 0 0 1-.26-.24.65.65 0 0 1-.04-.62 1.5 1.5 0 0 1 .39-.39zm.19.24-.05.03a.64.64 0 0 0-.14.14.4.4 0 0 0-.02.41c.04.06.08.1.14.14.06.04.13.05.22.05a.6.6 0 0 0 .39-.14l-.54-.63zm.1-.44.14-.1a.67.67 0 0 0 .15-.14.3.3 0 0 0 .05-.16v-.01c0-.13-.1-.23-.24-.23h-.01c-.1 0-.2.06-.23.14a.34.34 0 0 0 0 .3l.1.16.03.04zm4.23.7h-.41c-.01.1-.04.2-.09.28a.37.37 0 0 1-.16.16.62.62 0 0 1-.26.06h-.03a.48.48 0 0 1-.41-.22l-.01-.01a.8.8 0 0 1-.1-.25 1.7 1.7 0 0 1-.03-.3v-.25c0-.12 0-.24.04-.33.02-.1.06-.2.1-.26s.1-.12.18-.16a.54.54 0 0 1 .23-.05h.02a.7.7 0 0 1 .28.06c.07.04.13.1.17.17.03.07.06.16.06.27h.43c-.02-.16-.07-.3-.14-.44a.82.82 0 0 0-.31-.29 1 1 0 0 0-.45-.1h-.05c-.14 0-.28.02-.4.07s-.23.14-.32.24a1.22 1.22 0 0 0-.26.84v.2c0 .17.02.33.07.46.04.14.1.27.2.36.16.2.4.32.67.32h.03c.2 0 .36-.04.5-.11a.78.78 0 0 0 .32-.3c.07-.12.11-.26.13-.42zm2.31-.35v-.13c0-.18-.02-.34-.07-.5a1.1 1.1 0 0 0-.2-.36.87.87 0 0 0-.32-.23.98.98 0 0 0-.4-.08h-.02a.99.99 0 0 0-.4.08.97.97 0 0 0-.52.59c-.05.14-.08.3-.08.46v.17c0 .19.02.34.07.5.06.14.13.26.21.37.17.19.42.31.7.31h.03c.15 0 .28-.03.4-.08a.92.92 0 0 0 .53-.6c.05-.15.07-.31.07-.5zm-.42-.13v.13a1.32 1.32 0 0 1-.14.62.5.5 0 0 1-.19.16.55.55 0 0 1-.24.06h-.02a.54.54 0 0 1-.24-.06.53.53 0 0 1-.18-.16.84.84 0 0 1-.12-.26c-.03-.1-.04-.22-.04-.34v-.15c0-.14.01-.26.04-.37.03-.1.07-.19.12-.25s.1-.13.18-.16a.46.46 0 0 1 .24-.06h.01c.09 0 .17.02.24.06.08.03.14.09.18.16.06.06.1.15.12.26.03.1.04.22.04.36z" />
    </symbol>
  </defs>
</svg>
